PathFileType	4	(X/Y/Z)	./resultDataOpenSim/trcMotMarkerGrf/sub09/qtm-05-06.trc
DataRate	CameraRate	NumFrames	NumMarkers	Units	OrigDataRate	OrigDataStartFrame	OrigNumFrames
250.000000	250.000000	7	24	m	250.000000	382	509
Frame#	Time	L.Toe.Tip			R.Toe.Tip			L.Ankle.Lat			R.Ankle.Lat			L.Ankle.Med			R.Ankle.Med			L.Heel			R.Heel			L.Knee.Lat			R.Knee.Lat			L.Knee.Med			R.Knee.Med			L.Thigh.Upper			R.Thigh.Upper			L.ASIS			R.ASIS			V.Sacral			L.Acromium			R.Acromium			C7			L.Elbow			R.Elbow			L.Wrist.Lat			R.Wrist.Lat
		X1	Y1	Z1	X2	Y2	Z2	X3	Y3	Z3	X4	Y4	Z4	X5	Y5	Z5	X6	Y6	Z6	X7	Y7	Z7	X8	Y8	Z8	X9	Y9	Z9	X10	Y10	Z10	X11	Y11	Z11	X12	Y12	Z12	X13	Y13	Z13	X14	Y14	Z14	X15	Y15	Z15	X16	Y16	Z16	X17	Y17	Z17	X18	Y18	Z18	X19	Y19	Z19	X20	Y20	Z20	X21	Y21	Z21	X22	Y22	Z22	X23	Y23	Z23	X24	Y24	Z24

382	1.524	0.75729609	0.14793896	-0.0073573797	1.0452683	0.03956228	0.11025521	0.73717769	0.30148528	-0.061118269	0.89742409	0.056685967	0.13731061	0.74832984	0.29321439	0.035910756	0.91990788	0.10050613	0.050127603	0.66636603	0.34452065	-0.024894133	0.82933939	0.041281017	0.083809811	1.0822537	0.50385708	-0.057378379	1.0154959	0.49651522	0.21625591	1.0775162	0.4947939	0.071410707	1.0019793	0.48851962	0.089354108	0.90812296	0.87784926	-0.088148784	0.91294481	0.89295857	0.28042255	0.98120619	0.96288218	-0.030355065	0.99384963	0.97173287	0.20628224	0.81931867	1.031106	0.091520102	0.99771963	1.4181895	-0.083003709	0.98332169	1.4358395	0.24670842	0.92312637	1.4763354	0.080648692	0.84926114	1.0775688	-0.13881894	0.843471	1.0954819	0.34428056	0.98725837	0.8534467	-0.17123051	1.0357618	0.89448123	0.35241847
383	1.528	0.77485909	0.14601433	-0.008412584	1.0453905	0.039565571	0.11024814	0.74939294	0.29888383	-0.060285097	0.89735601	0.057057782	0.13713503	0.76104973	0.29016067	0.036647248	0.92032352	0.10085153	0.049950931	0.67750997	0.33992051	-0.023460985	0.82952786	0.04177801	0.083354988	1.091177	0.50738312	-0.056723338	1.0167169	0.49657327	0.21640266	1.0860605	0.49804177	0.071858781	1.0035078	0.48851538	0.089300794	0.91315985	0.87950569	-0.088141008	0.91686138	0.89334416	0.28106616	0.98618566	0.96458477	-0.03023151	0.9985942	0.9728745	0.20640746	0.82412194	1.0323208	0.091747118	1.001716	1.4195614	-0.082933729	0.98797784	1.4372699	0.24679943	0.92765444	1.4776046	0.081039219	0.85291529	1.079165	-0.13865675	0.84855002	1.0967786	0.34479817	0.99024115	0.85481912	-0.17218609	1.0417009	0.89650677	0.35216458
384	1.532	0.79263004	0.14402891	-0.0094839385	1.0454966	0.03957184	0.11024236	0.76167127	0.29602735	-0.059432438	0.89731363	0.057440041	0.13696278	0.77405479	0.28685022	0.037388025	0.92072469	0.10119093	0.049779595	0.68879579	0.33501973	-0.022037379	0.82969144	0.04230036	0.08293359	1.1000392	0.51081332	-0.056092196	1.017938	0.49670159	0.21655409	1.0959141	0.50129729	0.07259497	1.0050402	0.48849184	0.089273135	0.91820254	0.88111354	-0.08813491	0.92064046	0.89368236	0.28168442	0.99117956	0.96622433	-0.030102408	1.0033095	0.97397114	0.20654859	0.82887804	1.033468	0.091946631	1.0057146	1.4208781	-0.082854817	0.99262394	1.4386415	0.24689249	0.93210285	1.4788692	0.081338162	0.85660307	1.0807224	-0.13852536	0.85361917	1.0980112	0.34531176	0.99326237	0.85615953	-0.17310941	1.0476086	0.898459	0.35190315
385	1.536	0.81039495	0.1419799	-0.010449751	1.0455883	0.039581029	0.11023941	0.77403306	0.29292476	-0.058571135	0.89736131	0.057823718	0.13678177	0.78747843	0.28328523	0.03816629	0.92111592	0.10151242	0.049620656	0.70023185	0.32981225	-0.020629357	0.82985072	0.042857708	0.082560364	1.108838	0.51413013	-0.055487043	1.0191833	0.49684743	0.21670227	1.106302	0.50449522	0.073424684	1.006467	0.48847366	0.0892843	0.92335067	0.88267466	-0.088122709	0.92448312	0.89420095	0.28204512	0.99618862	0.96780361	-0.029964308	1.0080057	0.97501507	0.20670544	0.83357811	1.034551	0.092114823	1.0097194	1.4221419	-0.082766829	0.9972585	1.4399538	0.2469862	0.93645311	1.4801259	0.081541501	0.86032503	1.0822333	-0.13842054	0.85867233	1.0991769	0.34581539	0.99632547	0.8574655	-0.17400322	1.0534877	0.90033824	0.35163678
386	1.54	0.8280286	0.13986801	-0.011228794	1.0456699	0.0395914	0.1102384	0.78649108	0.28957714	-0.057713885	0.89748026	0.058209955	0.13660221	0.80124751	0.27950513	0.038992861	0.92148218	0.10181832	0.049494361	0.71181063	0.32429547	-0.019235824	0.83002466	0.043454412	0.082256036	1.1174723	0.51734039	-0.054926006	1.0204727	0.49697081	0.21685607	1.116475	0.50759479	0.074159612	1.0079191	0.48847512	0.089391348	0.92872834	0.8841882	-0.08808447	0.92852138	0.89490551	0.28216431	1.0012116	0.96932522	-0.029814436	1.012694	0.97600578	0.20688159	0.83821983	1.0355806	0.092266442	1.0137294	1.4233576	-0.082670881	1.0018835	1.4412069	0.2470818	0.94072228	1.4813532	0.081678382	0.86405263	1.0836823	-0.13831332	0.86372024	1.1002777	0.34631356	0.99942432	0.85872902	-0.174874	1.0593374	0.90214748	0.35136869
387	1.544	0.84555407	0.13769159	-0.011831483	1.0457467	0.039599454	0.11023641	0.79905323	0.28598094	-0.056869784	0.89762584	0.058599912	0.13644094	0.81522737	0.27556319	0.039805485	0.92180971	0.1021135	0.049420919	0.72353157	0.31846935	-0.017880626	0.83023086	0.044076728	0.082064146	1.1258026	0.52047588	-0.054437326	1.0218028	0.49708742	0.21701206	1.1259634	0.5105799	0.074682351	1.0095154	0.48854634	0.089617035	0.93437905	0.88565107	-0.088023118	0.93277417	0.89568791	0.28217081	1.0062489	0.97078635	-0.029651265	1.0173776	0.97695137	0.20708355	0.84283175	1.0365725	0.092415175	1.0177404	1.4245255	-0.08256908	1.0064987	1.4424005	0.24717962	0.94495618	1.4825216	0.081803743	0.86777122	1.0850625	-0.13819021	0.86876892	1.1013147	0.34680951	1.0025497	0.85994423	-0.17572505	1.0651464	0.90388804	0.35109829
388	1.548	0.86305659	0.1354311	-0.01232182	1.0458213	0.03959861	0.11023138	0.8117272	0.28213853	-0.056042974	0.89777503	0.05898888	0.13630762	0.82950368	0.27148994	0.040483085	0.9221258	0.10239108	0.049387596	0.73540523	0.31233415	-0.016603634	0.83049341	0.044688452	0.08202402	1.1338046	0.52354622	-0.054029146	1.023128	0.4972164	0.21713106	1.1346737	0.51345015	0.074973824	1.0111593	0.48872559	0.089903715	0.94018677	0.88705706	-0.087971974	0.93708599	0.89646478	0.28217411	1.0112986	0.97217889	-0.029471757	1.0220492	0.97786018	0.2073111	0.84750638	1.0375279	0.092539984	1.0217528	1.4256385	-0.082467861	1.0111062	1.443534	0.24728367	0.94921727	1.4836063	0.081977012	0.87148167	1.0863782	-0.13806341	0.87381329	1.102283	0.34729967	1.0056976	0.86111143	-0.17655575	1.0709001	0.90555885	0.35082025
